# xmcd
#
# Track frame offsets:
# 183
# 11803
# 25705
# 35638
# 49725
# 58635
# 70958
# 79500
# 90273
# 102253
# 112015
# 125445
#
# Disc length: 1794 seconds
#
#
# Revision: 0
# Processed by: cddbd v1.5.2PL0 Copyright (c) Steve Scherf et al.
# Submitted via: FreeRIP 2.945 
#
DISCID=9507000c
DTITLE=Randy Newman - 12 Songs
DYEAR=1970
DGENRE=Ballad
TTITLE0=Have You Seen My Baby
TTITLE1=Let's Burn Down The Cornfield
TTITLE2=Mama Told Me Not To Come
TTITLE3=Suzanne
TTITLE4=Lover's Prayer
TTITLE5=Lucinda
TTITLE6=Underneath The Harlem Moon
TTITLE7=Yellow Man
TTITLE8=Old Kentucky Home
TTITLE9=Rosemary
TTITLE10=If You Need Oil
TTITLE11=Uncle Bob's Midnight Blues
EXTD=Bottleneck Guitar by Ry Cooder
EXTT0=
EXTT1=
EXTT2=
EXTT3=
EXTT4=
EXTT5=
EXTT6=
EXTT7=
EXTT8=
EXTT9=
EXTT10=
EXTT11=
PLAYORDER=
